Printline-Light.ufo
<glyph name="numbersign" format="2">
  <advance width="528"/>
  <unicode hex="0023"/>
  <outline>
    <contour>
      <point x="98" y="0" type="line"/>
      <point x="134" y="0" type="line"/>
      <point x="216" y="700" type="line"/>
      <point x="179" y="700" type="line"/>
    </contour>
    <contour>
      <point x="302" y="0" type="line"/>
      <point x="338" y="0" type="line"/>
      <point x="420" y="700" type="line"/>
      <point x="384" y="700" type="line"/>
    </contour>
    <contour>
      <point x="44" y="469" type="line"/>
      <point x="498" y="469" type="line"/>
      <point x="498" y="498" type="line"/>
      <point x="44" y="498" type="line"/>
    </contour>
    <contour>
      <point x="30" y="243" type="line"/>
      <point x="474" y="243" type="line"/>
      <point x="474" y="272" type="line"/>
      <point x="30" y="272" type="line"/>
    </contour>
  </outline>
</glyph>
<glyph name="parenright" format="2">
  <advance width="180"/>
  <unicode hex="0029"/>
  <outline>
    <contour>
      <point x="52.8235" y="-50" type="qcurve"/>
      <point x="30" y="-50" type="line"/>
      <point x="114" y="105.805"/>
      <point x="114" y="351.887" type="qcurve" smooth="yes"/>
      <point x="114" y="600.853"/>
      <point x="30" y="750" type="qcurve"/>
      <point x="52.8235" y="750" type="line"/>
      <point x="150" y="581.67"/>
      <point x="150" y="346.088" type="qcurve" smooth="yes"/>
      <point x="150" y="147.035"/>
    </contour>
  </outline>
</glyph>
<glyph name="comma" format="2">
  <advance width="120"/>
  <unicode hex="002C"/>
  <outline>
    <contour>
      <point x="30" y="49.7217" type="qcurve" smooth="yes"/>
      <point x="30" y="15"/>
      <point x="58" y="15" type="qcurve"/>
      <point x="34" y="-70" type="line"/>
      <point x="48" y="-70" type="line"/>
      <point x="90" y="9"/>
      <point x="90" y="47.0736" type="qcurve" smooth="yes"/>
      <point x="90" y="81"/>
      <point x="60.2792" y="81" type="qcurve" smooth="yes"/>
      <point x="47.4" y="81"/>
      <point x="30" y="67.2261"/>
    </contour>
  </outline>
</glyph>
<glyph name="zero" format="2">
  <advance width="319"/>
  <unicode hex="0030"/>
  <outline>
    <contour>
      <point x="159.937" y="-15" type="qcurve" smooth="yes"/>
      <point x="229.031" y="-15"/>
      <point x="299" y="190"/>
      <point x="299" y="350" type="qcurve" smooth="yes"/>
      <point x="299" y="510"/>
      <point x="229.031" y="715"/>
      <point x="159.937" y="715" type="qcurve" smooth="yes"/>
      <point x="90.8433" y="715"/>
      <point x="20" y="509"/>
      <point x="20" y="350" type="qcurve" smooth="yes"/>
      <point x="20" y="191"/>
      <point x="90.8433" y="-15"/>
    </contour>
    <contour>
      <point x="160.222" y="14" type="qcurve" smooth="yes"/>
      <point x="105.333" y="14"/>
      <point x="62" y="209.021"/>
      <point x="62" y="350" type="qcurve" smooth="yes"/>
      <point x="62" y="490.979"/>
      <point x="105.333" y="686"/>
      <point x="160.222" y="686" type="qcurve" smooth="yes"/>
      <point x="215.111" y="686"/>
      <point x="257" y="492.154"/>
      <point x="257" y="350" type="qcurve" smooth="yes"/>
      <point x="257" y="207.846"/>
      <point x="215.111" y="14"/>
    </contour>
  </outline>
</glyph>
<glyph name="one" format="2">
  <advance width="159"/>
  <unicode hex="0031"/>
  <outline>
    <contour>
      <point x="83" y="0" type="line"/>
      <point x="119" y="0" type="line"/>
      <point x="119" y="700" type="line"/>
      <point x="98.9638" y="700" type="line"/>
      <point x="40" y="671.008" type="line"/>
      <point x="40" y="642" type="line"/>
      <point x="83" y="662" type="line"/>
    </contour>
  </outline>
</glyph>
<glyph name="two" format="2">
  <advance width="327"/>
  <unicode hex="0032"/>
  <outline>
    <contour>
      <point x="66" y="29" type="line"/>
      <point x="307" y="260.365"/>
      <point x="307" y="494.072" type="qcurve" smooth="yes"/>
      <point x="307" y="583.836"/>
      <point x="234.554" y="715"/>
      <point x="169.22" y="715" type="qcurve" smooth="yes"/>
      <point x="104.868" y="715"/>
      <point x="36" y="591"/>
      <point x="36" y="484" type="qcurve"/>
      <point x="72" y="484" type="line"/>
      <point x="72" y="686"/>
      <point x="165.687" y="686" type="qcurve" smooth="yes"/>
      <point x="216.597" y="686"/>
      <point x="271" y="558.959"/>
      <point x="271" y="490.576" type="qcurve" smooth="yes"/>
      <point x="271" y="276.957"/>
      <point x="20" y="28.8597" type="qcurve"/>
      <point x="20" y="0" type="line"/>
      <point x="293" y="0" type="line"/>
      <point x="293" y="29" type="line"/>
    </contour>
  </outline>
</glyph>
<glyph name="three" format="2">
  <advance width="321"/>
  <unicode hex="0033"/>
  <outline>
    <contour>
      <point x="128.612" y="369" type="line"/>
      <point x="128.612" y="340" type="line"/>
      <point x="138.715" y="340" type="line"/>
      <point x="203.631" y="340"/>
      <point x="265" y="235.2"/>
      <point x="265" y="159.296" type="qcurve" smooth="yes"/>
      <point x="265" y="94.2461"/>
      <point x="216.284" y="14"/>
      <point x="171.299" y="14" type="qcurve" smooth="yes"/>
      <point x="124.582" y="14"/>
      <point x="73" y="103.883"/>
      <point x="73" y="191" type="qcurve"/>
      <point x="40" y="191" type="line"/>
      <point x="40" y="96"/>
      <point x="110.236" y="-15"/>
      <point x="170.712" y="-15" type="qcurve" smooth="yes"/>
      <point x="232.643" y="-15"/>
      <point x="301" y="98.9272"/>
      <point x="301" y="178.32" type="qcurve" smooth="yes"/>
      <point x="301" y="244.725"/>
      <point x="252.71" y="327.67"/>
      <point x="215" y="354" type="qcurve"/>
      <point x="252.71" y="379.423"/>
      <point x="301" y="460.619"/>
      <point x="301" y="525.192" type="qcurve" smooth="yes"/>
      <point x="301" y="605.995"/>
      <point x="227.316" y="715"/>
      <point x="167.931" y="715" type="qcurve" smooth="yes"/>
      <point x="104.166" y="715"/>
      <point x="40" y="591"/>
      <point x="40" y="485" type="qcurve"/>
      <point x="73" y="485" type="line"/>
      <point x="73" y="582.855"/>
      <point x="123.149" y="686"/>
      <point x="172.751" y="686" type="qcurve" smooth="yes"/>
      <point x="216.284" y="686"/>
      <point x="265" y="609.531"/>
      <point x="265" y="533.864" type="qcurve" smooth="yes"/>
      <point x="265" y="426.789"/>
      <point x="173.759" y="369"/>
      <point x="138.715" y="369" type="qcurve"/>
    </contour>
  </outline>
</glyph>
<glyph name="five" format="2">
  <advance width="304"/>
  <unicode hex="0035"/>
  <outline>
    <contour>
      <point x="21" y="305" type="line"/>
      <point x="57" y="305" type="line"/>
      <point x="62.7642" y="426"/>
      <point x="140.353" y="426" type="qcurve"/>
      <point x="248" y="426"/>
      <point x="248" y="216.734" type="qcurve" smooth="yes"/>
      <point x="248" y="14"/>
      <point x="148.638" y="14" type="qcurve" smooth="yes"/>
      <point x="56" y="14"/>
      <point x="56" y="191" type="qcurve"/>
      <point x="20" y="191" type="line"/>
      <point x="20" y="-15"/>
      <point x="146.454" y="-15" type="qcurve" smooth="yes"/>
      <point x="218.583" y="-15"/>
      <point x="284" y="120"/>
      <point x="284" y="231.008" type="qcurve" smooth="yes"/>
      <point x="284" y="332.273"/>
      <point x="226.931" y="455"/>
      <point x="150.309" y="455" type="qcurve" smooth="yes"/>
      <point x="92.1066" y="455"/>
      <point x="57" y="419" type="qcurve"/>
      <point x="56.8947" y="671" type="line"/>
      <point x="263" y="671" type="line"/>
      <point x="263" y="700" type="line"/>
      <point x="21" y="700" type="line"/>
    </contour>
  </outline>
</glyph>
<glyph name="six" format="2">
  <advance width="324"/>
  <unicode hex="0036"/>
  <outline>
    <contour>
      <point x="174.333" y="-15" type="qcurve" smooth="yes"/>
      <point x="304" y="-15"/>
      <point x="304" y="217.788" type="qcurve" smooth="yes"/>
      <point x="304" y="337"/>
      <point x="233.841" y="451"/>
      <point x="177.378" y="451" type="qcurve" smooth="yes"/>
      <point x="114.819" y="451"/>
      <point x="67" y="380" type="qcurve"/>
      <point x="67" y="499.288"/>
      <point x="108.664" y="686"/>
      <point x="169.693" y="686" type="qcurve" smooth="yes"/>
      <point x="246" y="686"/>
      <point x="246" y="524" type="qcurve"/>
      <point x="282" y="524" type="line"/>
      <point x="282" y="715"/>
      <point x="167.487" y="715" type="qcurve" smooth="yes"/>
      <point x="30.9342" y="715"/>
      <point x="21.2737" y="365.71" type="qcurve" smooth="yes"/>
      <point x="10.7443" y="-15"/>
    </contour>
    <contour>
      <point x="167.688" y="14" type="qcurve" smooth="yes"/>
      <point x="115.727" y="14"/>
      <point x="67" y="138.925"/>
      <point x="67" y="223.416" type="qcurve" smooth="yes"/>
      <point x="67" y="310.365"/>
      <point x="118.773" y="422"/>
      <point x="165.404" y="422" type="qcurve" smooth="yes"/>
      <point x="211.659" y="422"/>
      <point x="268" y="310.365"/>
      <point x="268" y="222.419" type="qcurve" smooth="yes"/>
      <point x="268" y="140.254"/>
      <point x="219.273" y="14"/>
    </contour>
  </outline>
</glyph>
<glyph name="less" format="2">
  <advance width="292"/>
  <unicode hex="003C"/>
  <outline>
    <contour>
      <point x="277" y="482" type="line"/>
      <point x="51" y="265" type="line"/>
      <point x="277" y="58" type="line"/>
      <point x="241" y="58" type="line"/>
      <point x="15" y="265" type="line"/>
      <point x="241" y="482" type="line"/>
    </contour>
  </outline>
</glyph>
<glyph name="equal" format="2">
  <advance width="349"/>
  <unicode hex="003D"/>
  <outline>
    <contour>
      <point x="0" y="351" type="line"/>
      <point x="349" y="351" type="line"/>
      <point x="349" y="380" type="line"/>
      <point x="0" y="380" type="line"/>
    </contour>
    <contour>
      <point x="0" y="232" type="line"/>
      <point x="349" y="232" type="line"/>
      <point x="349" y="261" type="line"/>
      <point x="0" y="261" type="line"/>
    </contour>
  </outline>
</glyph>
<glyph name="D" format="2">
  <advance width="315"/>
  <unicode hex="0044"/>
  <anchor x="167.5" y="697.712" name="top"/>
  <outline>
    <contour>
      <point x="145.458" y="0" type="line" smooth="yes"/>
      <point x="228.441" y="0"/>
      <point x="295" y="199"/>
      <point x="295" y="350" type="qcurve" smooth="yes"/>
      <point x="295" y="503"/>
      <point x="227.576" y="700"/>
      <point x="142.864" y="700" type="qcurve" smooth="yes"/>
      <point x="40" y="700" type="line"/>
      <point x="40" y="0" type="line"/>
    </contour>
    <contour>
      <point x="76" y="29" type="line"/>
      <point x="76" y="671" type="line"/>
      <point x="148.902" y="671" type="line" smooth="yes"/>
      <point x="212.878" y="671"/>
      <point x="259" y="485.94"/>
      <point x="259" y="350.031" type="qcurve" smooth="yes"/>
      <point x="259" y="217.488"/>
      <point x="215.854" y="29"/>
      <point x="156.341" y="29" type="qcurve" smooth="yes"/>
    </contour>
  </outline>
</glyph>
<glyph name="F" format="2">
  <advance width="247"/>
  <unicode hex="0046"/>
  <outline>
    <contour>
      <point x="40" y="0" type="line"/>
      <point x="76" y="0" type="line"/>
      <point x="76" y="352" type="line"/>
      <point x="192" y="352" type="line"/>
      <point x="192" y="381" type="line"/>
      <point x="76" y="381" type="line"/>
      <point x="76" y="671" type="line"/>
      <point x="242" y="671" type="line"/>
      <point x="242" y="700" type="line"/>
      <point x="40" y="700" type="line"/>
    </contour>
  </outline>
</glyph>
<glyph name="L" format="2">
  <advance width="226"/>
  <unicode hex="004C"/>
  <anchor x="58" y="700" name="top"/>
  <outline>
    <contour>
      <point x="40" y="0" type="line"/>
      <point x="221" y="0" type="line"/>
      <point x="221" y="29" type="line"/>
      <point x="76" y="29" type="line"/>
      <point x="76" y="700" type="line"/>
      <point x="40" y="700" type="line"/>
    </contour>
  </outline>
</glyph>
<glyph name="Q" format="2">
  <advance width="317"/>
  <unicode hex="0051"/>
  <outline>
    <contour>
      <point x="158.937" y="-15" type="qcurve" smooth="yes"/>
      <point x="235.833" y="-15"/>
      <point x="297" y="192"/>
      <point x="297" y="353" type="qcurve" smooth="yes"/>
      <point x="297" y="514"/>
      <point x="235.833" y="721"/>
      <point x="158.937" y="721" type="qcurve" smooth="yes"/>
      <point x="82.041" y="721"/>
      <point x="20" y="514"/>
      <point x="20" y="353" type="qcurve" smooth="yes"/>
      <point x="20" y="192"/>
      <point x="82.041" y="-15"/>
    </contour>
    <contour>
      <point x="159.207" y="14" type="qcurve" smooth="yes"/>
      <point x="101.241" y="14"/>
      <point x="56" y="210.144"/>
      <point x="56" y="353" type="qcurve" smooth="yes"/>
      <point x="56" y="495.856"/>
      <point x="101.241" y="692"/>
      <point x="159.207" y="692" type="qcurve" smooth="yes"/>
      <point x="215.759" y="692"/>
      <point x="261" y="496.99"/>
      <point x="261" y="353" type="qcurve" smooth="yes"/>
      <point x="261" y="209.01"/>
      <point x="215.759" y="14"/>
    </contour>
    <contour>
      <point x="159" y="14" type="line"/>
      <point x="159" y="-15" type="line"/>
      <point x="265" y="-84" type="line"/>
      <point x="265" y="-51" type="line"/>
    </contour>
  </outline>
</glyph>
<glyph name="R" format="2">
  <advance width="320"/>
  <unicode hex="0052"/>
  <anchor x="136.481" y="700" name="top"/>
  <outline>
    <contour>
      <point x="40" y="0" type="line"/>
      <point x="76" y="0" type="line"/>
      <point x="76" y="352" type="line"/>
      <point x="246" y="352"/>
      <point x="246" y="128" type="qcurve" smooth="yes"/>
      <point x="246" y="39.5923"/>
      <point x="264.397" y="0" type="qcurve"/>
      <point x="300" y="0" type="line"/>
      <point x="300" y="29" type="line"/>
      <point x="282" y="29"/>
      <point x="282" y="135.131" type="qcurve" smooth="yes"/>
      <point x="282" y="294.406"/>
      <point x="186" y="355" type="qcurve"/>
      <point x="291" y="380.623"/>
      <point x="291" y="527.823" type="qcurve" smooth="yes"/>
      <point x="291" y="700"/>
      <point x="164.206" y="700" type="qcurve"/>
      <point x="40" y="700" type="line"/>
    </contour>
    <contour>
      <point x="76" y="381" type="line"/>
      <point x="76" y="671" type="line"/>
      <point x="151.655" y="671" type="line"/>
      <point x="255" y="671"/>
      <point x="255" y="521.159" type="qcurve" smooth="yes"/>
      <point x="255" y="381"/>
      <point x="166.49" y="381" type="qcurve"/>
    </contour>
  </outline>
</glyph>
<glyph name="V" format="2">
  <advance width="303"/>
  <unicode hex="0056"/>
  <outline>
    <contour>
      <point x="15" y="700" type="line"/>
      <point x="120" y="0" type="line"/>
      <point x="184" y="0" type="line"/>
      <point x="288" y="700" type="line"/>
      <point x="252" y="700" type="line"/>
      <point x="152" y="49" type="line"/>
      <point x="51" y="700" type="line"/>
    </contour>
  </outline>
</glyph>
<glyph name="X" format="2">
  <advance width="336"/>
  <unicode hex="0058"/>
  <outline>
    <contour>
      <point x="32" y="700" type="line"/>
      <point x="144" y="370" type="line"/>
      <point x="15" y="0" type="line"/>
      <point x="51" y="0" type="line"/>
      <point x="170" y="339" type="line"/>
      <point x="285" y="0" type="line"/>
      <point x="321" y="0" type="line"/>
      <point x="196" y="363" type="line"/>
      <point x="311" y="700" type="line"/>
      <point x="275" y="700" type="line"/>
      <point x="170" y="394" type="line"/>
      <point x="68" y="700" type="line"/>
    </contour>
  </outline>
</glyph>
<glyph name="Y" format="2">
  <advance width="303"/>
  <unicode hex="0059"/>
  <anchor x="151" y="700" name="top"/>
  <outline>
    <contour>
      <point x="133" y="0" type="line"/>
      <point x="169" y="0" type="line"/>
      <point x="169" y="304" type="line"/>
      <point x="288" y="700" type="line"/>
      <point x="252" y="700" type="line"/>
      <point x="151" y="336" type="line"/>
      <point x="51" y="700" type="line"/>
      <point x="15" y="700" type="line"/>
      <point x="133" y="304" type="line"/>
    </contour>
  </outline>
</glyph>
<glyph name="d" format="2">
  <advance width="300"/>
  <unicode hex="0064"/>
  <outline>
    <contour>
      <point x="270" y="0" type="line"/>
      <point x="234" y="0" type="line"/>
      <point x="234" y="37.9352" type="line"/>
      <point x="201.517" y="-5"/>
      <point x="149.623" y="-5" type="qcurve" smooth="yes"/>
      <point x="85" y="-5"/>
      <point x="15" y="115.574"/>
      <point x="15" y="246.878" type="qcurve" smooth="yes"/>
      <point x="15" y="368.398"/>
      <point x="77.6786" y="515"/>
      <point x="145.011" y="515" type="qcurve" smooth="yes"/>
      <point x="176.92" y="515"/>
      <point x="217.286" y="483.04"/>
      <point x="234" y="454" type="qcurve"/>
      <point x="234" y="700" type="line"/>
      <point x="270" y="700" type="line"/>
    </contour>
    <contour>
      <point x="148.512" y="24" type="qcurve" smooth="yes"/>
      <point x="188.124" y="24"/>
      <point x="234" y="95.3871"/>
      <point x="234" y="155.966" type="qcurve" smooth="yes"/>
      <point x="234" y="292.33" type="line" smooth="yes"/>
      <point x="234" y="486.001"/>
      <point x="147.76" y="486.001" type="qcurve" smooth="yes"/>
      <point x="53.4113" y="486.001"/>
      <point x="51.1941" y="257" type="qcurve" smooth="yes"/>
      <point x="48.9295" y="24"/>
    </contour>
  </outline>
</glyph>
<glyph name="f" format="2">
  <advance width="157"/>
  <unicode hex="0066"/>
  <outline>
    <contour>
      <point x="47" y="0" type="line"/>
      <point x="83" y="0" type="line"/>
      <point x="83" y="471" type="line"/>
      <point x="145" y="471" type="line"/>
      <point x="145" y="500" type="line"/>
      <point x="84" y="500" type="line"/>
      <point x="84" y="595.548"/>
      <point x="108.649" y="686"/>
      <point x="157" y="686" type="qcurve"/>
      <point x="157" y="715" type="line"/>
      <point x="93.9308" y="715"/>
      <point x="48" y="630.303"/>
      <point x="48" y="554.453" type="qcurve" smooth="yes"/>
      <point x="48" y="500"/>
      <point x="0" y="500" type="qcurve"/>
      <point x="0" y="471" type="line"/>
      <point x="47" y="471" type="line"/>
    </contour>
  </outline>
</glyph>
<glyph name="h" format="2">
  <advance width="301"/>
  <unicode hex="0068"/>
  <outline>
    <contour>
      <point x="30" y="0" type="line"/>
      <point x="66" y="0" type="line"/>
      <point x="66" y="235.338" type="line" smooth="yes"/>
      <point x="66" y="391.865"/>
      <point x="121.661" y="486"/>
      <point x="162.166" y="486" type="qcurve" smooth="yes"/>
      <point x="205.541" y="486"/>
      <point x="235" y="388.581"/>
      <point x="235" y="235.338" type="qcurve" smooth="yes"/>
      <point x="235" y="0" type="line"/>
      <point x="271" y="0" type="line"/>
      <point x="271" y="299" type="line" smooth="yes"/>
      <point x="271" y="432"/>
      <point x="215.091" y="515"/>
      <point x="167.257" y="515" type="qcurve" smooth="yes"/>
      <point x="134.66" y="515"/>
      <point x="83.6555" y="476"/>
      <point x="66" y="436" type="qcurve"/>
      <point x="66" y="700" type="line"/>
      <point x="30" y="700" type="line"/>
    </contour>
  </outline>
</glyph>
<glyph name="i" format="2">
  <advance width="118"/>
  <unicode hex="0069"/>
  <anchor x="4" y="0" name="ced"/>
  <anchor x="2" y="0" name="ogonek"/>
  <outline>
    <contour>
      <point x="43" y="0" type="line"/>
      <point x="79" y="0" type="line"/>
      <point x="79" y="500" type="line"/>
      <point x="43" y="500" type="line"/>
    </contour>
    <contour>
      <point x="59" y="639" type="qcurve" smooth="yes"/>
      <point x="71.2105" y="639"/>
      <point x="88" y="653.904"/>
      <point x="88" y="669.5" type="qcurve" smooth="yes"/>
      <point x="88" y="685.096"/>
      <point x="71.2105" y="700"/>
      <point x="59" y="700" type="qcurve" smooth="yes"/>
      <point x="46.7895" y="700"/>
      <point x="30" y="685.096"/>
      <point x="30" y="669.5" type="qcurve" smooth="yes"/>
      <point x="30" y="653.904"/>
      <point x="46.7895" y="639"/>
    </contour>
  </outline>
</glyph>
<glyph name="k" format="2">
  <advance width="240"/>
  <unicode hex="006B"/>
  <outline>
    <contour>
      <point x="30.4398" y="0" type="line"/>
      <point x="67.4508" y="0" type="line"/>
      <point x="67.4508" y="182.031" type="line"/>
      <point x="83.0443" y="212.084" type="line"/>
      <point x="197.357" y="0" type="line"/>
      <point x="233.31" y="0" type="line"/>
      <point x="101.657" y="237.23" type="line"/>
      <point x="234.939" y="480.22" type="line"/>
      <point x="199.166" y="480.22" type="line"/>
      <point x="67.4508" y="235.057" type="line"/>
      <point x="67.4508" y="689.011" type="line"/>
      <point x="30.4398" y="689.011" type="line"/>
    </contour>
  </outline>
</glyph>
<glyph name="l" format="2">
  <advance width="136"/>
  <unicode hex="006C"/>
  <anchor x="53" y="750" name="top"/>
  <outline>
    <contour>
      <point x="30" y="750" type="line"/>
      <point x="30" y="136.535" type="line" smooth="yes"/>
      <point x="30" y="63.3149"/>
      <point x="59.5556" y="-1"/>
      <point x="106" y="-1" type="qcurve"/>
      <point x="106" y="28" type="line"/>
      <point x="84" y="27.0221"/>
      <point x="66" y="54.7014"/>
      <point x="66" y="99.2038" type="qcurve" smooth="yes"/>
      <point x="66" y="750" type="line"/>
    </contour>
  </outline>
</glyph>
<glyph name="s" format="2">
  <advance width="282"/>
  <unicode hex="0073"/>
  <anchor x="141" y="500" name="top"/>
  <outline>
    <contour>
      <point x="145.74" y="-5" type="qcurve" smooth="yes"/>
      <point x="198.435" y="-5"/>
      <point x="267" y="73.6429"/>
      <point x="267" y="125.351" type="qcurve" smooth="yes"/>
      <point x="267" y="171.946"/>
      <point x="210.345" y="248.646"/>
      <point x="149.581" y="284.875" type="qcurve" smooth="yes"/>
      <point x="106.743" y="310.416"/>
      <point x="63" y="358.26"/>
      <point x="63" y="398.695" type="qcurve" smooth="yes"/>
      <point x="63" y="438.411"/>
      <point x="106.346" y="486"/>
      <point x="136.457" y="486" type="qcurve" smooth="yes"/>
      <point x="174.462" y="486"/>
      <point x="224" y="413.262"/>
      <point x="224" y="333" type="qcurve"/>
      <point x="260" y="333" type="line"/>
      <point x="260" y="416.311"/>
      <point x="197.337" y="515"/>
      <point x="141.454" y="515" type="qcurve" smooth="yes"/>
      <point x="94.0758" y="515"/>
      <point x="27" y="446.565"/>
      <point x="27" y="395.941" type="qcurve" smooth="yes"/>
      <point x="27" y="346.908"/>
      <point x="94.1187" y="273.617"/>
      <point x="143.67" y="241.329" type="qcurve" smooth="yes"/>
      <point x="191.831" y="209.948"/>
      <point x="231" y="155.124"/>
      <point x="231" y="122.011" type="qcurve" smooth="yes"/>
      <point x="231" y="85.018"/>
      <point x="186" y="24"/>
      <point x="147.127" y="24" type="qcurve" smooth="yes"/>
      <point x="97.5" y="24"/>
      <point x="51" y="121.895"/>
      <point x="51" y="179" type="qcurve"/>
      <point x="15" y="179" type="line"/>
      <point x="15" y="83.2062"/>
      <point x="90.689" y="-5"/>
    </contour>
  </outline>
</glyph>
<glyph name="v" format="2">
  <advance width="283"/>
  <unicode hex="0076"/>
  <outline>
    <contour>
      <point x="117" y="0" type="line"/>
      <point x="167" y="0" type="line"/>
      <point x="278" y="500" type="line"/>
      <point x="242" y="500" type="line"/>
      <point x="142" y="42" type="line"/>
      <point x="41" y="500" type="line"/>
      <point x="5" y="500" type="line"/>
    </contour>
  </outline>
</glyph>
<glyph name="w" format="2">
  <advance width="452"/>
  <unicode hex="0077"/>
  <anchor x="225" y="500" name="top"/>
  <outline>
    <contour>
      <point x="98" y="0" type="line"/>
      <point x="147" y="0" type="line"/>
      <point x="225" y="450.051" type="line"/>
      <point x="305" y="0" type="line"/>
      <point x="354" y="0" type="line"/>
      <point x="447" y="500" type="line"/>
      <point x="411" y="500" type="line"/>
      <point x="330" y="42" type="line"/>
      <point x="241" y="500.051" type="line"/>
      <point x="210" y="500.051" type="line"/>
      <point x="123" y="42" type="line"/>
      <point x="41" y="500" type="line"/>
      <point x="5" y="500" type="line"/>
    </contour>
  </outline>
</glyph>
<glyph name="z" format="2">
  <advance width="271"/>
  <unicode hex="007A"/>
  <anchor x="135.5" y="500" name="top"/>
  <outline>
    <contour>
      <point x="5" y="0" type="line"/>
      <point x="266" y="0" type="line"/>
      <point x="266" y="29" type="line"/>
      <point x="41" y="29" type="line"/>
      <point x="256" y="471" type="line"/>
      <point x="256" y="500" type="line"/>
      <point x="15" y="500" type="line"/>
      <point x="15" y="471" type="line"/>
      <point x="220" y="471" type="line"/>
      <point x="5" y="29" type="line"/>
    </contour>
  </outline>
</glyph>
<glyph name="braceleft" format="2">
  <advance width="258"/>
  <unicode hex="007B"/>
  <outline>
    <contour>
      <point x="218" y="750" type="qcurve"/>
      <point x="218" y="721" type="line"/>
      <point x="191.064" y="721"/>
      <point x="159.017" y="708.594"/>
      <point x="142.11" y="679.156"/>
      <point x="137" y="630.375"/>
      <point x="137" y="579.243" type="qcurve" smooth="yes"/>
      <point x="137" y="511.188"/>
      <point x="128.05" y="386.342"/>
      <point x="108" y="360.775" type="qcurve"/>
      <point x="127.928" y="336.045"/>
      <point x="137" y="206.334"/>
      <point x="137" y="131.537" type="qcurve" smooth="yes"/>
      <point x="137" y="76.375"/>
      <point x="142.11" y="24.5312"/>
      <point x="159.017" y="-6.78126"/>
      <point x="191.064" y="-20"/>
      <point x="218" y="-20" type="qcurve"/>
      <point x="218" y="-49" type="line"/>
      <point x="188.107" y="-49"/>
      <point x="143.597" y="-36.6233"/>
      <point x="114.58" y="7.61667"/>
      <point x="101" y="93.4633"/>
      <point x="101" y="178.609" type="qcurve" smooth="yes"/>
      <point x="101" y="230.133"/>
      <point x="96.1646" y="301.892"/>
      <point x="82.7744" y="337.442"/>
      <point x="58.9695" y="346"/>
      <point x="40" y="346" type="qcurve"/>
      <point x="40" y="375" type="line"/>
      <point x="58.9695" y="375"/>
      <point x="82.7744" y="381.8"/>
      <point x="96.1646" y="414.679"/>
      <point x="101" y="483.275"/>
      <point x="101" y="532.892" type="qcurve" smooth="yes"/>
      <point x="101" y="614.789"/>
      <point x="114.58" y="696.259"/>
      <point x="143.597" y="738.248"/>
      <point x="188.107" y="750"/>
    </contour>
  </outline>
</glyph>
<glyph name="cent" format="2">
  <advance width="290"/>
  <unicode hex="00A2"/>
  <anchor x="171" y="10" name="ced"/>
  <anchor x="172.57" y="500" name="top"/>
  <outline>
    <component base="c"/>
    <contour>
      <point x="132" y="-98" type="line"/>
      <point x="168" y="-98" type="line"/>
      <point x="168" y="14" type="line"/>
      <point x="132" y="14" type="line"/>
    </contour>
    <contour>
      <point x="132" y="495.531" type="line"/>
      <point x="168" y="495.531" type="line"/>
      <point x="168" y="607.531" type="line"/>
      <point x="132" y="607.531" type="line"/>
    </contour>
  </outline>
</glyph>
<glyph name="sterling" format="2">
  <advance width="401"/>
  <unicode hex="00A3"/>
  <outline>
    <contour>
      <point x="113.089" y="141.102" type="line"/>
      <point x="113.1" y="94.8646"/>
      <point x="87.4227" y="29"/>
      <point x="64.1315" y="29" type="qcurve"/>
      <point x="40" y="29" type="line"/>
      <point x="40" y="0" type="line"/>
      <point x="381" y="0" type="line"/>
      <point x="381" y="29" type="line"/>
      <point x="119" y="29" type="line"/>
      <point x="139.456" y="29"/>
      <point x="149" y="118.552"/>
      <point x="149" y="140.398" type="qcurve"/>
      <point x="149" y="526.69" type="line"/>
      <point x="149" y="686"/>
      <point x="246.879" y="686" type="qcurve" smooth="yes"/>
      <point x="340.782" y="686"/>
      <point x="341" y="534" type="qcurve"/>
      <point x="377" y="534" type="line"/>
      <point x="377" y="715"/>
      <point x="246.862" y="715" type="qcurve" smooth="yes"/>
      <point x="112.955" y="715"/>
      <point x="113" y="522.155" type="qcurve"/>
    </contour>
    <contour>
      <point x="50" y="285" type="line"/>
      <point x="297" y="285" type="line"/>
      <point x="297" y="314" type="line"/>
      <point x="50" y="314" type="line"/>
    </contour>
  </outline>
</glyph>
<glyph name="dieresis" format="2">
  <advance width="266"/>
  <unicode hex="00A8"/>
  <anchor x="133" y="700" name="_top"/>
  <outline>
    <contour>
      <point x="0" y="780.964" type="qcurve" smooth="yes"/>
      <point x="0" y="750.224"/>
      <point x="29.2685" y="750.224" type="qcurve" smooth="yes"/>
      <point x="58" y="750.224"/>
      <point x="58" y="780.964" type="qcurve" smooth="yes"/>
      <point x="58" y="811.224"/>
      <point x="29.2685" y="811.224" type="qcurve" smooth="yes"/>
      <point x="0" y="811.224"/>
    </contour>
    <contour>
      <point x="207.447" y="780.964" type="qcurve" smooth="yes"/>
      <point x="207.447" y="750.224"/>
      <point x="236.715" y="750.224" type="qcurve" smooth="yes"/>
      <point x="265.447" y="750.224"/>
      <point x="265.447" y="780.964" type="qcurve" smooth="yes"/>
      <point x="265.447" y="811.224"/>
      <point x="236.715" y="811.224" type="qcurve" smooth="yes"/>
      <point x="207.447" y="811.224"/>
    </contour>
  </outline>
</glyph>
<glyph name="ordfeminine" format="2">
  <advance width="298"/>
  <unicode hex="00AA"/>
  <outline>
    <contour>
      <point x="268" y="700.086" type="line"/>
      <point x="268" y="280" type="line"/>
      <point x="232" y="280" type="line"/>
      <point x="232" y="314" type="line"/>
      <point x="195.359" y="274"/>
      <point x="139.628" y="274" type="qcurve" smooth="yes"/>
      <point x="15" y="274"/>
      <point x="15" y="488.03" type="qcurve" smooth="yes"/>
      <point x="15" y="706"/>
      <point x="143.057" y="706" type="qcurve" smooth="yes"/>
      <point x="197.417" y="706"/>
      <point x="232" y="668" type="qcurve"/>
      <point x="245.31" y="700.086" type="line"/>
    </contour>
    <contour>
      <point x="152.12" y="677" type="qcurve" smooth="yes"/>
      <point x="51" y="677"/>
      <point x="51" y="492.331" type="qcurve" smooth="yes"/>
      <point x="51" y="306"/>
      <point x="153.676" y="306" type="qcurve" smooth="yes"/>
      <point x="232" y="306"/>
      <point x="232" y="412.286" type="qcurve"/>
      <point x="232" y="565.7" type="line"/>
      <point x="232" y="677"/>
    </contour>
  </outline>
</glyph>
<glyph name="plusminus" format="2">
  <advance width="349"/>
  <unicode hex="00B1"/>
  <outline>
    <component base="minus" yOffset="-210"/>
    <contour>
      <point x="157" y="108.733" type="line"/>
      <point x="193" y="108.733" type="line"/>
      <point x="193" y="262" type="line"/>
      <point x="348" y="262" type="line"/>
      <point x="348" y="298" type="line"/>
      <point x="193" y="298" type="line"/>
      <point x="193" y="453" type="line"/>
      <point x="157" y="453" type="line"/>
      <point x="157" y="298" type="line"/>
      <point x="2" y="298" type="line"/>
      <point x="2" y="262" type="line"/>
      <point x="157" y="262" type="line"/>
    </contour>
  </outline>
</glyph>
<glyph name="paragraph" format="2">
  <advance width="314"/>
  <unicode hex="00B6"/>
  <outline>
    <contour>
      <point x="294" y="0" type="line"/>
      <point x="258" y="0" type="line"/>
      <point x="258" y="312" type="line"/>
      <point x="193.882" y="312" type="line" smooth="yes"/>
      <point x="118.773" y="312"/>
      <point x="40" y="425.37"/>
      <point x="40" y="507.466" type="qcurve" smooth="yes"/>
      <point x="40" y="582.72"/>
      <point x="98.4868" y="700"/>
      <point x="170.342" y="700" type="qcurve" smooth="yes"/>
      <point x="294" y="700" type="line"/>
    </contour>
  </outline>
</glyph>
<glyph name="ordmasculine" format="2">
  <advance width="291"/>
  <unicode hex="00BA"/>
  <outline>
    <contour>
      <point x="145.934" y="280" type="qcurve" smooth="yes"/>
      <point x="203.163" y="280"/>
      <point x="276" y="403"/>
      <point x="276" y="488.093" type="qcurve" smooth="yes"/>
      <point x="276" y="575.666"/>
      <point x="202.296" y="700"/>
      <point x="145.934" y="700" type="qcurve" smooth="yes"/>
      <point x="88.7043" y="700"/>
      <point x="15" y="575.666"/>
      <point x="15" y="488.32" type="qcurve" smooth="yes"/>
      <point x="15" y="403"/>
      <point x="88.7043" y="280"/>
    </contour>
    <contour>
      <point x="146.233" y="309" type="qcurve" smooth="yes"/>
      <point x="102.279" y="309"/>
      <point x="51" y="407.381"/>
      <point x="51" y="491.284" type="qcurve" smooth="yes"/>
      <point x="51" y="572.271"/>
      <point x="102.279" y="671"/>
      <point x="146.233" y="671" type="qcurve" smooth="yes"/>
      <point x="188.721" y="671"/>
      <point x="240" y="572.271"/>
      <point x="240" y="491.284" type="qcurve" smooth="yes"/>
      <point x="240" y="407.381"/>
      <point x="188.721" y="309"/>
    </contour>
  </outline>
</glyph>
<glyph name="Acircumflex" format="2">
  <advance width="283"/>
  <unicode hex="00C2"/>
  <anchor x="142" y="700" name="top"/>
  <outline>
    <contour>
      <point x="268" y="0" type="line"/>
      <point x="169.017" y="700" type="line"/>
      <point x="112.983" y="700" type="line"/>
      <point x="15" y="0" type="line"/>
      <point x="51" y="0" type="line"/>
      <point x="79" y="209" type="line"/>
      <point x="204" y="209" type="line"/>
      <point x="232" y="0" type="line"/>
    </contour>
    <contour>
      <point x="200" y="238" type="line"/>
      <point x="83" y="238" type="line"/>
      <point x="141" y="671" type="line"/>
    </contour>
    <contour>
      <point x="74" y="750" type="line"/>
      <point x="135" y="861" type="line"/>
      <point x="196" y="750" type="line"/>
      <point x="232" y="750" type="line"/>
      <point x="156.654" y="884" type="line"/>
      <point x="113.346" y="884" type="line"/>
      <point x="38" y="750" type="line"/>
    </contour>
  </outline>
</glyph>
<glyph name="AE" format="2">
  <advance width="403"/>
  <unicode hex="00C6"/>
  <outline>
    <contour>
      <point x="15.3" y="0" type="line"/>
      <point x="50.85" y="0" type="line"/>
      <point x="99.3071" y="212" type="line"/>
      <point x="191" y="212" type="line"/>
      <point x="191" y="0" type="line"/>
      <point x="398" y="0" type="line"/>
      <point x="398" y="29" type="line"/>
      <point x="227" y="29" type="line"/>
      <point x="227" y="332" type="line"/>
      <point x="381" y="332" type="line"/>
      <point x="381" y="361" type="line"/>
      <point x="227" y="361" type="line"/>
      <point x="227" y="671" type="line"/>
      <point x="391" y="671" type="line"/>
      <point x="391" y="700" type="line"/>
      <point x="175.3" y="700" type="line"/>
    </contour>
    <contour>
      <point x="115.079" y="241" type="line"/>
      <point x="191" y="653.156" type="line"/>
      <point x="191" y="241" type="line"/>
    </contour>
  </outline>
</glyph>
<glyph name="Otilde" format="2">
  <advance width="327"/>
  <unicode hex="00D5"/>
  <anchor x="163.5" y="700" name="top"/>
  <outline>
    <contour>
      <point x="163.923" y="-15" type="qcurve" smooth="yes"/>
      <point x="235.038" y="-15"/>
      <point x="307" y="192"/>
      <point x="307" y="347.154" type="qcurve" smooth="yes"/>
      <point x="307" y="514"/>
      <point x="223.316" y="721"/>
      <point x="163.923" y="721" type="qcurve" smooth="yes"/>
      <point x="104.53" y="721"/>
      <point x="20" y="514"/>
      <point x="20" y="347.217" type="qcurve" smooth="yes"/>
      <point x="20" y="192"/>
      <point x="92.8083" y="-15"/>
    </contour>
    <contour>
      <point x="164.251" y="14" type="qcurve" smooth="yes"/>
      <point x="104.548" y="14"/>
      <point x="56" y="210.144"/>
      <point x="56" y="346.689" type="qcurve" smooth="yes"/>
      <point x="56" y="495.856"/>
      <point x="114.335" y="692"/>
      <point x="164.197" y="692" type="qcurve" smooth="yes"/>
      <point x="213.963" y="692"/>
      <point x="271" y="496.99"/>
      <point x="271" y="346.414" type="qcurve" smooth="yes"/>
      <point x="271" y="209.01"/>
      <point x="223.839" y="14"/>
    </contour>
    <contour>
      <point x="93.9741" y="750" type="line"/>
      <point x="93.9741" y="820.663"/>
      <point x="114.078" y="820.663" type="qcurve" smooth="yes"/>
      <point x="130.29" y="820.663"/>
      <point x="173.5" y="750"/>
      <point x="203.825" y="750" type="qcurve" smooth="yes"/>
      <point x="238.986" y="750"/>
      <point x="279.846" y="800.081"/>
      <point x="279.974" y="862.105" type="qcurve"/>
      <point x="230.974" y="862.105" type="line"/>
      <point x="230.974" y="789.337"/>
      <point x="209.748" y="789.337" type="qcurve" smooth="yes"/>
      <point x="193.165" y="789.337"/>
      <point x="147.066" y="860"/>
      <point x="116.965" y="860" type="qcurve" smooth="yes"/>
      <point x="82.1308" y="860"/>
      <point x="44.9741" y="810.341"/>
      <point x="44.9741" y="750" type="qcurve"/>
    </contour>
  </outline>
</glyph>
<glyph name="Oslash" format="2">
  <advance width="327"/>
  <unicode hex="00D8"/>
  <anchor x="189.5" y="700" name="top"/>
  <outline>
    <component base="O"/>
    <contour>
      <point x="36.5" y="-31" type="line"/>
      <point x="67.5" y="-45" type="line"/>
      <point x="297.5" y="735" type="line"/>
      <point x="265.5" y="750" type="line"/>
    </contour>
  </outline>
</glyph>
<glyph name="Udieresis" format="2">
  <advance width="357"/>
  <unicode hex="00DC"/>
  <anchor x="178.5" y="73.1902" name="top"/>
  <anchor x="198.5" y="0.298" name="ced"/>
  <outline>
    <contour>
      <point x="40" y="160" type="line"/>
      <point x="40" y="73.1902"/>
      <point x="114.032" y="-21"/>
      <point x="178.985" y="-21" type="qcurve" smooth="yes"/>
      <point x="244.23" y="-21"/>
      <point x="317" y="73.1902"/>
      <point x="317" y="160" type="qcurve"/>
      <point x="317" y="700" type="line"/>
      <point x="281" y="700" type="line"/>
      <point x="281" y="160" type="line" smooth="yes"/>
      <point x="281" y="7.98685"/>
      <point x="179.006" y="7.99125" type="qcurve" smooth="yes"/>
      <point x="76" y="7.98685"/>
      <point x="76" y="160" type="qcurve" smooth="yes"/>
      <point x="76" y="700" type="line"/>
      <point x="40" y="700" type="line"/>
    </contour>
    <contour>
      <point x="45.7767" y="780.964" type="qcurve" smooth="yes"/>
      <point x="45.7767" y="750.224"/>
      <point x="75.0452" y="750.224" type="qcurve" smooth="yes"/>
      <point x="103.777" y="750.224"/>
      <point x="103.777" y="780.964" type="qcurve" smooth="yes"/>
      <point x="103.777" y="811.224"/>
      <point x="75.0452" y="811.224" type="qcurve" smooth="yes"/>
      <point x="45.7767" y="811.224"/>
    </contour>
    <contour>
      <point x="253.223" y="780.964" type="qcurve" smooth="yes"/>
      <point x="253.223" y="750.224"/>
      <point x="282.492" y="750.224" type="qcurve" smooth="yes"/>
      <point x="311.223" y="750.224"/>
      <point x="311.223" y="780.964" type="qcurve" smooth="yes"/>
      <point x="311.223" y="811.224"/>
      <point x="282.492" y="811.224" type="qcurve" smooth="yes"/>
      <point x="253.223" y="811.224"/>
    </contour>
  </outline>
</glyph>
<glyph name="Yacute" format="2">
  <advance width="303"/>
  <unicode hex="00DD"/>
  <anchor x="189.5" y="700" name="top"/>
  <outline>
    <contour>
      <point x="133" y="0" type="line"/>
      <point x="169" y="0" type="line"/>
      <point x="169" y="304" type="line"/>
      <point x="288" y="700" type="line"/>
      <point x="252" y="700" type="line"/>
      <point x="151" y="336" type="line"/>
      <point x="51" y="700" type="line"/>
      <point x="15" y="700" type="line"/>
      <point x="133" y="304" type="line"/>
    </contour>
    <contour>
      <point x="198.543" y="750" type="line"/>
      <point x="243.205" y="890" type="line"/>
      <point x="206.992" y="890" type="line"/>
      <point x="176.322" y="750" type="line"/>
    </contour>
  </outline>
</glyph>
<glyph name="germandbls" format="2">
  <advance width="381"/>
  <unicode hex="00DF"/>
  <outline>
    <contour>
      <point x="168.6" y="0" type="line"/>
      <point x="361" y="0"/>
      <point x="361" y="191.631" type="qcurve" smooth="yes"/>
      <point x="361" y="304.79"/>
      <point x="255.25" y="363.95" type="qcurve"/>
      <point x="341" y="420.306"/>
      <point x="341" y="548.548" type="qcurve" smooth="yes"/>
      <point x="341" y="715"/>
      <point x="201.367" y="715" type="qcurve" smooth="yes"/>
      <point x="40" y="715"/>
      <point x="40" y="485" type="qcurve"/>
      <point x="40" y="0" type="line"/>
      <point x="73" y="0" type="line"/>
      <point x="73" y="515.031" type="line"/>
      <point x="73" y="686"/>
      <point x="194.432" y="686" type="qcurve" smooth="yes"/>
      <point x="305" y="686"/>
      <point x="305" y="541.526" type="qcurve" smooth="yes"/>
      <point x="305" y="379"/>
      <point x="168.6" y="379" type="qcurve"/>
      <point x="168.6" y="353" type="line"/>
      <point x="325" y="353"/>
      <point x="325" y="189.531" type="qcurve" smooth="yes"/>
      <point x="325" y="29"/>
      <point x="168.6" y="29" type="qcurve"/>
    </contour>
  </outline>
</glyph>
<glyph name="atilde" format="2">
  <advance width="303"/>
  <unicode hex="00E3"/>
  <anchor x="160" y="500" name="top"/>
  <outline>
    <contour>
      <point x="132.611" y="-5" type="qcurve" smooth="yes"/>
      <point x="164.156" y="-5"/>
      <point x="220.812" y="22"/>
      <point x="237" y="54" type="qcurve"/>
      <point x="237" y="0" type="line"/>
      <point x="273" y="0" type="line"/>
      <point x="273" y="337" type="line" smooth="yes"/>
      <point x="273" y="429"/>
      <point x="222.604" y="515"/>
      <point x="161.849" y="515" type="qcurve" smooth="yes"/>
      <point x="101.726" y="515"/>
      <point x="37" y="431"/>
      <point x="37" y="330" type="qcurve"/>
      <point x="73" y="330" type="line"/>
      <point x="73" y="413.379"/>
      <point x="119.588" y="486"/>
      <point x="164.179" y="486" type="qcurve" smooth="yes"/>
      <point x="209.491" y="486"/>
      <point x="237" y="414"/>
      <point x="237" y="326" type="qcurve"/>
      <point x="126.584" y="272"/>
      <point x="15" y="184"/>
      <point x="15" y="122.21" type="qcurve" smooth="yes"/>
      <point x="15" y="75"/>
      <point x="78.5938" y="-5"/>
    </contour>
    <contour>
      <point x="135.528" y="24" type="qcurve" smooth="yes"/>
      <point x="94.0413" y="24"/>
      <point x="51" y="88.1755"/>
      <point x="51" y="120.871" type="qcurve" smooth="yes"/>
      <point x="51" y="175.825"/>
      <point x="175.512" y="263.547"/>
      <point x="237" y="297" type="qcurve"/>
      <point x="237" y="151.787" type="line" smooth="yes"/>
      <point x="237" y="84.9894"/>
      <point x="175.512" y="24"/>
    </contour>
    <contour>
      <point x="74" y="550" type="line"/>
      <point x="74" y="620.663"/>
      <point x="94.1043" y="620.663" type="qcurve" smooth="yes"/>
      <point x="110.316" y="620.663"/>
      <point x="153.526" y="550"/>
      <point x="183.851" y="550" type="qcurve" smooth="yes"/>
      <point x="219.012" y="550"/>
      <point x="259.872" y="600.081"/>
      <point x="260" y="662.105" type="qcurve"/>
      <point x="211" y="662.105" type="line"/>
      <point x="211" y="589.337"/>
      <point x="189.774" y="589.337" type="qcurve" smooth="yes"/>
      <point x="173.19" y="589.337"/>
      <point x="127.092" y="660"/>
      <point x="96.9909" y="660" type="qcurve" smooth="yes"/>
      <point x="62.1567" y="660"/>
      <point x="25" y="610.341"/>
      <point x="25" y="550" type="qcurve"/>
    </contour>
  </outline>
</glyph>
<glyph name="ccedilla" format="2">
  <advance width="290"/>
  <unicode hex="00E7"/>
  <anchor x="152" y="10" name="ced"/>
  <anchor x="152" y="500" name="top"/>
  <outline>
    <contour>
      <point x="148.645" y="-5" type="qcurve" smooth="yes"/>
      <point x="204.656" y="-5"/>
      <point x="273" y="112.706"/>
      <point x="273" y="182" type="qcurve"/>
      <point x="237" y="182" type="line"/>
      <point x="237" y="117.812"/>
      <point x="190" y="24"/>
      <point x="148.67" y="24" type="qcurve" smooth="yes"/>
      <point x="99.7143" y="24"/>
      <point x="51" y="154.821"/>
      <point x="51" y="255.354" type="qcurve" smooth="yes"/>
      <point x="51" y="355.179"/>
      <point x="99.0219" y="486"/>
      <point x="148.432" y="486" type="qcurve" smooth="yes"/>
      <point x="185" y="486"/>
      <point x="239" y="411.487"/>
      <point x="239" y="330" type="qcurve"/>
      <point x="275" y="330" type="line"/>
      <point x="275" y="411.048"/>
      <point x="205.729" y="515"/>
      <point x="151.773" y="515" type="qcurve" smooth="yes"/>
      <point x="88.6667" y="515"/>
      <point x="15" y="372.736"/>
      <point x="15" y="254.765" type="qcurve" smooth="yes"/>
      <point x="15" y="138.245"/>
      <point x="86.8591" y="-5"/>
    </contour>
    <contour>
      <point x="134" y="-64" type="line"/>
      <point x="239" y="-64"/>
      <point x="239" y="-141.53" type="qcurve" smooth="yes"/>
      <point x="239" y="-219.802"/>
      <point x="134" y="-211" type="qcurve"/>
      <point x="134" y="-240" type="line"/>
      <point x="274.118" y="-249.109"/>
      <point x="275.122" y="-139.751" type="qcurve" smooth="yes"/>
      <point x="276.001" y="-44.1137"/>
      <point x="170" y="-35" type="qcurve"/>
      <point x="170" y="10" type="line"/>
      <point x="134" y="10" type="line"/>
    </contour>
  </outline>
</glyph>
<glyph name="igrave" format="2">
  <advance width="96"/>
  <unicode hex="00EC"/>
  <anchor x="48" y="500" name="top"/>
  <anchor x="23" y="0" name="ced"/>
  <anchor x="18" y="0" name="ogonek"/>
  <outline>
    <contour>
      <point x="30" y="0" type="line"/>
      <point x="66" y="0" type="line"/>
      <point x="66" y="500" type="line"/>
      <point x="30" y="500" type="line"/>
    </contour>
    <contour>
      <point x="37.9952" y="550" type="line"/>
      <point x="61.1726" y="550" type="line"/>
      <point x="14.6082" y="690" type="line"/>
      <point x="-21.0349" y="690" type="line"/>
    </contour>
  </outline>
</glyph>
<glyph name="ntilde" format="2">
  <advance width="291"/>
  <unicode hex="00F1"/>
  <anchor x="170.5" y="500" name="top"/>
  <outline>
    <contour>
      <point x="30" y="0" type="line"/>
      <point x="66" y="0" type="line"/>
      <point x="66" y="234.283" type="line" smooth="yes"/>
      <point x="66" y="400.108"/>
      <point x="105.09" y="486"/>
      <point x="150.104" y="486" type="qcurve" smooth="yes"/>
      <point x="201.451" y="486"/>
      <point x="225" y="386.839"/>
      <point x="225" y="234.283" type="qcurve" smooth="yes"/>
      <point x="225" y="0" type="line"/>
      <point x="261" y="0" type="line"/>
      <point x="261" y="299" type="line" smooth="yes"/>
      <point x="261" y="432"/>
      <point x="208.364" y="515"/>
      <point x="161.579" y="515" type="qcurve" smooth="yes"/>
      <point x="132.641" y="515"/>
      <point x="83.6986" y="485.873"/>
      <point x="68" y="456" type="qcurve"/>
      <point x="62" y="500" type="line"/>
      <point x="30" y="500" type="line"/>
    </contour>
    <contour>
      <point x="71.5" y="550" type="line"/>
      <point x="71.5" y="631"/>
      <point x="96.8958" y="631" type="qcurve" smooth="yes"/>
      <point x="115.982" y="631"/>
      <point x="161.026" y="550"/>
      <point x="196.982" y="550" type="qcurve" smooth="yes"/>
      <point x="226.512" y="550"/>
      <point x="267.372" y="600.081"/>
      <point x="267.5" y="662.105" type="qcurve"/>
      <point x="228.5" y="662.105" type="line"/>
      <point x="228.5" y="579"/>
      <point x="199.937" y="579" type="qcurve" smooth="yes"/>
      <point x="178.439" y="579"/>
      <point x="134.592" y="660"/>
      <point x="98.8747" y="660" type="qcurve" smooth="yes"/>
      <point x="69.6567" y="660"/>
      <point x="32.5" y="610.341"/>
      <point x="32.5" y="550" type="qcurve"/>
    </contour>
  </outline>
</glyph>
<glyph name="ograve" format="2">
  <advance width="291"/>
  <unicode hex="00F2"/>
  <anchor x="165.5" y="500" name="top"/>
  <outline>
    <contour>
      <point x="145.957" y="-5" type="qcurve" smooth="yes"/>
      <point x="203.204" y="-5"/>
      <point x="276" y="138.245"/>
      <point x="276" y="255.229" type="qcurve" smooth="yes"/>
      <point x="276" y="372.736"/>
      <point x="202.316" y="515"/>
      <point x="145.563" y="515" type="qcurve" smooth="yes"/>
      <point x="88.6837" y="515"/>
      <point x="15" y="372.736"/>
      <point x="15" y="255.545" type="qcurve" smooth="yes"/>
      <point x="15" y="138.245"/>
      <point x="88.6837" y="-5"/>
    </contour>
    <contour>
      <point x="145.563" y="24" type="qcurve" smooth="yes"/>
      <point x="102.158" y="24"/>
      <point x="51" y="150.107"/>
      <point x="51" y="255.131" type="qcurve" smooth="yes"/>
      <point x="51" y="359.893"/>
      <point x="102.158" y="486"/>
      <point x="145.521" y="486" type="qcurve" smooth="yes"/>
      <point x="188.842" y="486"/>
      <point x="240" y="359.893"/>
      <point x="240" y="255.131" type="qcurve" smooth="yes"/>
      <point x="240" y="150.107"/>
      <point x="188.842" y="24"/>
    </contour>
    <contour>
      <point x="201.323" y="550" type="line"/>
      <point x="224.5" y="550" type="line"/>
      <point x="177.936" y="690" type="line"/>
      <point x="142.293" y="690" type="line"/>
    </contour>
  </outline>
</glyph>
<glyph name="ocircumflex" format="2">
  <advance width="291"/>
  <unicode hex="00F4"/>
  <anchor x="145.5" y="500" name="top"/>
  <outline>
    <contour>
      <point x="145.957" y="-5" type="qcurve" smooth="yes"/>
      <point x="203.204" y="-5"/>
      <point x="276" y="138.245"/>
      <point x="276" y="255.229" type="qcurve" smooth="yes"/>
      <point x="276" y="372.736"/>
      <point x="202.316" y="515"/>
      <point x="145.563" y="515" type="qcurve" smooth="yes"/>
      <point x="88.6837" y="515"/>
      <point x="15" y="372.736"/>
      <point x="15" y="255.545" type="qcurve" smooth="yes"/>
      <point x="15" y="138.245"/>
      <point x="88.6837" y="-5"/>
    </contour>
    <contour>
      <point x="145.563" y="24" type="qcurve" smooth="yes"/>
      <point x="102.158" y="24"/>
      <point x="51" y="150.107"/>
      <point x="51" y="255.131" type="qcurve" smooth="yes"/>
      <point x="51" y="359.893"/>
      <point x="102.158" y="486"/>
      <point x="145.521" y="486" type="qcurve" smooth="yes"/>
      <point x="188.842" y="486"/>
      <point x="240" y="359.893"/>
      <point x="240" y="255.131" type="qcurve" smooth="yes"/>
      <point x="240" y="150.107"/>
      <point x="188.842" y="24"/>
    </contour>
    <contour>
      <point x="84.5" y="550" type="line"/>
      <point x="145.5" y="661" type="line"/>
      <point x="206.5" y="550" type="line"/>
      <point x="242.5" y="550" type="line"/>
      <point x="167.154" y="684" type="line"/>
      <point x="123.846" y="684" type="line"/>
      <point x="48.5" y="550" type="line"/>
    </contour>
  </outline>
</glyph>
<glyph name="odieresis" format="2">
  <advance width="291"/>
  <unicode hex="00F6"/>
  <anchor x="165.5" y="500" name="top"/>
  <outline>
    <contour>
      <point x="145.957" y="-5" type="qcurve" smooth="yes"/>
      <point x="203.204" y="-5"/>
      <point x="276" y="138.245"/>
      <point x="276" y="255.229" type="qcurve" smooth="yes"/>
      <point x="276" y="372.736"/>
      <point x="202.316" y="515"/>
      <point x="145.563" y="515" type="qcurve" smooth="yes"/>
      <point x="88.6837" y="515"/>
      <point x="15" y="372.736"/>
      <point x="15" y="255.545" type="qcurve" smooth="yes"/>
      <point x="15" y="138.245"/>
      <point x="88.6837" y="-5"/>
    </contour>
    <contour>
      <point x="145.563" y="24" type="qcurve" smooth="yes"/>
      <point x="102.158" y="24"/>
      <point x="51" y="150.107"/>
      <point x="51" y="255.131" type="qcurve" smooth="yes"/>
      <point x="51" y="359.893"/>
      <point x="102.158" y="486"/>
      <point x="145.521" y="486" type="qcurve" smooth="yes"/>
      <point x="188.842" y="486"/>
      <point x="240" y="359.893"/>
      <point x="240" y="255.131" type="qcurve" smooth="yes"/>
      <point x="240" y="150.107"/>
      <point x="188.842" y="24"/>
    </contour>
    <contour>
      <point x="22.5" y="580.964" type="qcurve" smooth="yes"/>
      <point x="22.5" y="550.224"/>
      <point x="51.7685" y="550.224" type="qcurve" smooth="yes"/>
      <point x="80.5" y="550.224"/>
      <point x="80.5" y="580.964" type="qcurve" smooth="yes"/>
      <point x="80.5" y="611.224"/>
      <point x="51.7685" y="611.224" type="qcurve" smooth="yes"/>
      <point x="22.5" y="611.224"/>
    </contour>
    <contour>
      <point x="229.947" y="580.964" type="qcurve" smooth="yes"/>
      <point x="229.947" y="550.224"/>
      <point x="259.215" y="550.224" type="qcurve" smooth="yes"/>
      <point x="287.947" y="550.224"/>
      <point x="287.947" y="580.964" type="qcurve" smooth="yes"/>
      <point x="287.947" y="611.224"/>
      <point x="259.215" y="611.224" type="qcurve" smooth="yes"/>
      <point x="229.947" y="611.224"/>
    </contour>
  </outline>
</glyph>
<glyph name="divide" format="2">
  <advance width="349"/>
  <unicode hex="00F7"/>
  <outline>
    <contour>
      <point x="150" y="460.772" type="qcurve" smooth="yes"/>
      <point x="150" y="440.669"/>
      <point x="167.722" y="426"/>
      <point x="179" y="426" type="qcurve" smooth="yes"/>
      <point x="190.278" y="426"/>
      <point x="208" y="440.669"/>
      <point x="208" y="460.772" type="qcurve" smooth="yes"/>
      <point x="208" y="480.874"/>
      <point x="190.278" y="495"/>
      <point x="179" y="495" type="qcurve" smooth="yes"/>
      <point x="167.722" y="495"/>
      <point x="150" y="480.874"/>
    </contour>
    <contour>
      <point x="0" y="294" type="line"/>
      <point x="349" y="294" type="line"/>
      <point x="349" y="330" type="line"/>
      <point x="0" y="330" type="line"/>
    </contour>
    <contour>
      <point x="145" y="146.772" type="qcurve" smooth="yes"/>
      <point x="145" y="126.669"/>
      <point x="162.722" y="112"/>
      <point x="174" y="112" type="qcurve" smooth="yes"/>
      <point x="185.278" y="112"/>
      <point x="203" y="126.669"/>
      <point x="203" y="146.772" type="qcurve" smooth="yes"/>
      <point x="203" y="166.874"/>
      <point x="185.278" y="181"/>
      <point x="174" y="181" type="qcurve" smooth="yes"/>
      <point x="162.722" y="181"/>
      <point x="145" y="166.874"/>
    </contour>
  </outline>
</glyph>
<glyph name="oslash" format="2">
  <advance width="299"/>
  <unicode hex="00F8"/>
  <anchor x="173.5" y="500" name="top"/>
  <outline>
    <component base="o" xOffset="8"/>
    <contour>
      <point x="15.5" y="-20" type="line"/>
      <point x="35.4293" y="-32" type="line"/>
      <point x="281.5" y="519" type="line"/>
      <point x="258.996" y="531.908" type="line"/>
    </contour>
  </outline>
</glyph>
<glyph name="udieresis" format="2">
  <advance width="301"/>
  <unicode hex="00FC"/>
  <anchor x="170.5" y="500" name="top"/>
  <outline>
    <contour>
      <point x="271" y="0" type="line"/>
      <point x="271" y="500" type="line"/>
      <point x="235" y="500" type="line"/>
      <point x="235" y="195.404" type="line" smooth="yes"/>
      <point x="235" y="108.961"/>
      <point x="194.688" y="24"/>
      <point x="147.657" y="24" type="qcurve" smooth="yes"/>
      <point x="100.11" y="24"/>
      <point x="66" y="108.961"/>
      <point x="66" y="196.101" type="qcurve" smooth="yes"/>
      <point x="66" y="500" type="line"/>
      <point x="30" y="500" type="line"/>
      <point x="30" y="168" type="line" smooth="yes"/>
      <point x="30" y="81"/>
      <point x="89.5476" y="-5"/>
      <point x="147.65" y="-5" type="qcurve" smooth="yes"/>
      <point x="212.548" y="-5"/>
      <point x="235" y="48" type="qcurve"/>
      <point x="235" y="0" type="line"/>
    </contour>
    <contour>
      <point x="27.5" y="580.964" type="qcurve" smooth="yes"/>
      <point x="27.5" y="550.224"/>
      <point x="56.7685" y="550.224" type="qcurve" smooth="yes"/>
      <point x="85.5" y="550.224"/>
      <point x="85.5" y="580.964" type="qcurve" smooth="yes"/>
      <point x="85.5" y="611.224"/>
      <point x="56.7685" y="611.224" type="qcurve" smooth="yes"/>
      <point x="27.5" y="611.224"/>
    </contour>
    <contour>
      <point x="234.947" y="580.964" type="qcurve" smooth="yes"/>
      <point x="234.947" y="550.224"/>
      <point x="264.215" y="550.224" type="qcurve" smooth="yes"/>
      <point x="292.947" y="550.224"/>
      <point x="292.947" y="580.964" type="qcurve" smooth="yes"/>
      <point x="292.947" y="611.224"/>
      <point x="264.215" y="611.224" type="qcurve" smooth="yes"/>
      <point x="234.947" y="611.224"/>
    </contour>
  </outline>
</glyph>
<glyph name="thorn" format="2">
  <advance width="301"/>
  <unicode hex="00FE"/>
  <outline>
    <contour>
      <point x="30.5" y="-259" type="line"/>
      <point x="66.5" y="-259" type="line"/>
      <point x="66.5" y="37.95" type="line"/>
      <point x="99" y="-5"/>
      <point x="150.9" y="-5" type="qcurve" smooth="yes"/>
      <point x="215.5" y="-5"/>
      <point x="285.5" y="115.55"/>
      <point x="285.5" y="246.9" type="qcurve" smooth="yes"/>
      <point x="285.5" y="368.4"/>
      <point x="222.8" y="515"/>
      <point x="155.5" y="515" type="qcurve" smooth="yes"/>
      <point x="123.6" y="515"/>
      <point x="83.2" y="483.05"/>
      <point x="66.5" y="454" type="qcurve"/>
      <point x="66.5" y="750" type="line"/>
      <point x="30.5" y="750" type="line"/>
    </contour>
    <contour>
      <point x="152" y="24" type="qcurve" smooth="yes"/>
      <point x="112.4" y="24"/>
      <point x="66.5" y="95.4"/>
      <point x="66.5" y="155.95" type="qcurve" smooth="yes"/>
      <point x="66.5" y="292.35" type="line" smooth="yes"/>
      <point x="66.5" y="486"/>
      <point x="152.75" y="486" type="qcurve" smooth="yes"/>
      <point x="247.1" y="486"/>
      <point x="249.3" y="257" type="qcurve" smooth="yes"/>
      <point x="251.55" y="24"/>
    </contour>
  </outline>
</glyph>
<glyph name="Amacron" format="2">
  <advance width="283"/>
  <unicode hex="0100"/>
  <anchor x="141" y="700" name="top"/>
  <outline>
    <contour>
      <point x="268" y="0" type="line"/>
      <point x="169.017" y="700" type="line"/>
      <point x="112.983" y="700" type="line"/>
      <point x="15" y="0" type="line"/>
      <point x="51" y="0" type="line"/>
      <point x="79" y="209" type="line"/>
      <point x="204" y="209" type="line"/>
      <point x="232" y="0" type="line"/>
    </contour>
    <contour>
      <point x="200" y="238" type="line"/>
      <point x="83" y="238" type="line"/>
      <point x="141" y="671" type="line"/>
    </contour>
    <contour>
      <point x="51" y="750" type="line"/>
      <point x="231" y="750" type="line"/>
      <point x="231" y="779" type="line"/>
      <point x="51" y="779" type="line"/>
    </contour>
  </outline>
</glyph>
<glyph name="Aogonek" format="2">
  <advance width="283"/>
  <unicode hex="0104"/>
  <anchor x="141" y="700" name="top"/>
  <outline>
    <contour>
      <point x="268" y="0" type="line"/>
      <point x="169.017" y="700" type="line"/>
      <point x="112.983" y="700" type="line"/>
      <point x="15" y="0" type="line"/>
      <point x="51" y="0" type="line"/>
      <point x="79" y="209" type="line"/>
      <point x="204" y="209" type="line"/>
      <point x="232" y="0" type="line"/>
    </contour>
    <contour>
      <point x="200" y="238" type="line"/>
      <point x="83" y="238" type="line"/>
      <point x="141" y="671" type="line"/>
    </contour>
    <contour>
      <point x="232" y="0" type="line"/>
      <point x="204.629" y="-35.5375" type="line" smooth="yes"/>
      <point x="156" y="-98.6761"/>
      <point x="156" y="-162.109" type="qcurve" smooth="yes"/>
      <point x="156" y="-259"/>
      <point x="264" y="-259" type="qcurve"/>
      <point x="264" y="-240" type="line"/>
      <point x="192" y="-220"/>
      <point x="192" y="-157.928" type="qcurve" smooth="yes"/>
      <point x="192" y="-108.898"/>
      <point x="238.624" y="-42.0921" type="qcurve" smooth="yes"/>
      <point x="268" y="0" type="line"/>
    </contour>
  </outline>
</glyph>
<glyph name="Cacute" format="2">
  <advance width="311"/>
  <unicode hex="0106"/>
  <anchor x="175.5" y="700" name="top"/>
  <anchor x="175.5" y="0" name="ced"/>
  <anchor x="175.5" y="-6" name="ogonek"/>
  <outline>
    <contour>
      <point x="252" y="237" type="line"/>
      <point x="250.559" y="134.639"/>
      <point x="198.016" y="14"/>
      <point x="157" y="14" type="qcurve" smooth="yes"/>
      <point x="102.899" y="14"/>
      <point x="56" y="219.214"/>
      <point x="56" y="373.19" type="qcurve" smooth="yes"/>
      <point x="56" y="523.067"/>
      <point x="101.612" y="692"/>
      <point x="158" y="692" type="qcurve" smooth="yes"/>
      <point x="207.555" y="692"/>
      <point x="255" y="558.64"/>
      <point x="255" y="430" type="qcurve"/>
      <point x="291" y="430" type="line"/>
      <point x="291" y="571"/>
      <point x="230.875" y="721"/>
      <point x="158.869" y="721" type="qcurve" smooth="yes"/>
      <point x="78.3826" y="721"/>
      <point x="20" y="532"/>
      <point x="20" y="354.936" type="qcurve" smooth="yes"/>
      <point x="20" y="177"/>
      <point x="80.039" y="-15"/>
      <point x="155.841" y="-15" type="qcurve" smooth="yes"/>
      <point x="219.26" y="-15"/>
      <point x="288" y="119"/>
      <point x="288" y="237" type="qcurve"/>
    </contour>
    <contour>
      <point x="184.543" y="750" type="line"/>
      <point x="229.205" y="890" type="line"/>
      <point x="192.992" y="890" type="line"/>
      <point x="162.322" y="750" type="line"/>
    </contour>
  </outline>
</glyph>
<glyph name="Ccaron" format="2">
  <advance width="311"/>
  <unicode hex="010C"/>
  <anchor x="175.5" y="700" name="top"/>
  <anchor x="175.5" y="0" name="ced"/>
  <anchor x="175.5" y="-6" name="ogonek"/>
  <outline>
    <contour>
      <point x="252" y="237" type="line"/>
      <point x="250.559" y="134.639"/>
      <point x="198.016" y="14"/>
      <point x="157" y="14" type="qcurve" smooth="yes"/>
      <point x="102.899" y="14"/>
      <point x="56" y="219.214"/>
      <point x="56" y="373.19" type="qcurve" smooth="yes"/>
      <point x="56" y="523.067"/>
      <point x="101.612" y="692"/>
      <point x="158" y="692" type="qcurve" smooth="yes"/>
      <point x="207.555" y="692"/>
      <point x="255" y="558.64"/>
      <point x="255" y="430" type="qcurve"/>
      <point x="291" y="430" type="line"/>
      <point x="291" y="571"/>
      <point x="230.875" y="721"/>
      <point x="158.869" y="721" type="qcurve" smooth="yes"/>
      <point x="78.3826" y="721"/>
      <point x="20" y="532"/>
      <point x="20" y="354.936" type="qcurve" smooth="yes"/>
      <point x="20" y="177"/>
      <point x="80.039" y="-15"/>
      <point x="155.841" y="-15" type="qcurve" smooth="yes"/>
      <point x="219.26" y="-15"/>
      <point x="288" y="119"/>
      <point x="288" y="237" type="qcurve"/>
    </contour>
    <contour>
      <point x="197.154" y="749.998" type="line"/>
      <point x="272.5" y="883.998" type="line"/>
      <point x="236.5" y="883.998" type="line"/>
      <point x="175.5" y="772.998" type="line"/>
      <point x="114.5" y="883.998" type="line"/>
      <point x="78.5" y="883.998" type="line"/>
      <point x="153.846" y="749.998" type="line"/>
    </contour>
  </outline>
</glyph>
<glyph name="dcaron" format="2">
  <advance width="319"/>
  <unicode hex="010F"/>
  <outline>
    <contour>
      <point x="270" y="0" type="line"/>
      <point x="234" y="0" type="line"/>
      <point x="234" y="37.9352" type="line"/>
      <point x="201.517" y="-5"/>
      <point x="149.623" y="-5" type="qcurve" smooth="yes"/>
      <point x="85" y="-5"/>
      <point x="15" y="115.574"/>
      <point x="15" y="246.878" type="qcurve" smooth="yes"/>
      <point x="15" y="368.398"/>
      <point x="77.6786" y="515"/>
      <point x="145.011" y="515" type="qcurve" smooth="yes"/>
      <point x="176.92" y="515"/>
      <point x="217.286" y="483.04"/>
      <point x="234" y="454" type="qcurve"/>
      <point x="234" y="700" type="line"/>
      <point x="270" y="700" type="line"/>
    </contour>
    <contour>
      <point x="148.512" y="24" type="qcurve" smooth="yes"/>
      <point x="188.124" y="24"/>
      <point x="234" y="95.3871"/>
      <point x="234" y="155.966" type="qcurve" smooth="yes"/>
      <point x="234" y="292.33" type="line" smooth="yes"/>
      <point x="234" y="486.001"/>
      <point x="147.76" y="486.001" type="qcurve" smooth="yes"/>
      <point x="53.4113" y="486.001"/>
      <point x="51.1941" y="257" type="qcurve" smooth="yes"/>
      <point x="48.9295" y="24"/>
    </contour>
    <contour>
      <point x="340" y="669.661" type="qcurve" smooth="yes"/>
      <point x="340" y="687.165"/>
      <point x="357.4" y="700.939"/>
      <point x="370.279" y="700.939" type="qcurve" smooth="yes"/>
      <point x="400" y="700.939"/>
      <point x="400" y="667.013" type="qcurve" smooth="yes"/>
      <point x="400" y="628.939"/>
      <point x="358" y="549.939" type="qcurve"/>
      <point x="344" y="549.939" type="line"/>
      <point x="368" y="634.939" type="line"/>
      <point x="340" y="634.939"/>
    </contour>
  </outline>
</glyph>
<glyph name="Edotaccent" format="2">
  <advance width="252"/>
  <unicode hex="0116"/>
  <anchor x="168.5" y="700" name="top"/>
  <anchor x="229" y="0" name="ogonek"/>
  <anchor x="175.5" y="0" name="ced"/>
  <outline>
    <contour>
      <point x="40" y="0" type="line"/>
      <point x="247" y="0" type="line"/>
      <point x="247" y="29" type="line"/>
      <point x="76" y="29" type="line"/>
      <point x="76" y="342" type="line"/>
      <point x="200" y="342" type="line"/>
      <point x="200" y="371" type="line"/>
      <point x="76" y="371" type="line"/>
      <point x="76" y="671" type="line"/>
      <point x="240" y="671" type="line"/>
      <point x="240" y="700" type="line"/>
      <point x="40" y="700" type="line"/>
    </contour>
    <contour>
      <point x="118.5" y="769.654" type="qcurve" smooth="yes"/>
      <point x="118.5" y="750"/>
      <point x="136.5" y="750" type="qcurve" smooth="yes"/>
      <point x="154.5" y="750"/>
      <point x="154.5" y="769.654" type="qcurve" smooth="yes"/>
      <point x="154.5" y="789"/>
      <point x="136.5" y="789" type="qcurve" smooth="yes"/>
      <point x="118.5" y="789"/>
    </contour>
  </outline>
</glyph>
<glyph name="Eogonek" format="2">
  <advance width="252"/>
  <unicode hex="0118"/>
  <anchor x="168.5" y="700" name="top"/>
  <anchor x="229" y="0" name="ogonek"/>
  <anchor x="175.5" y="0" name="ced"/>
  <outline>
    <contour>
      <point x="40" y="0" type="line"/>
      <point x="247" y="0" type="line"/>
      <point x="247" y="29" type="line"/>
      <point x="76" y="29" type="line"/>
      <point x="76" y="342" type="line"/>
      <point x="200" y="342" type="line"/>
      <point x="200" y="371" type="line"/>
      <point x="76" y="371" type="line"/>
      <point x="76" y="671" type="line"/>
      <point x="240" y="671" type="line"/>
      <point x="240" y="700" type="line"/>
      <point x="40" y="700" type="line"/>
    </contour>
    <contour>
      <point x="210" y="0" type="line"/>
      <point x="182.629" y="-35.5375" type="line" smooth="yes"/>
      <point x="134" y="-98.6761"/>
      <point x="134" y="-162.109" type="qcurve" smooth="yes"/>
      <point x="134" y="-259"/>
      <point x="242" y="-259" type="qcurve"/>
      <point x="242" y="-240" type="line"/>
      <point x="170" y="-220"/>
      <point x="170" y="-157.928" type="qcurve" smooth="yes"/>
      <point x="170" y="-108.898"/>
      <point x="216.624" y="-42.0921" type="qcurve" smooth="yes"/>
      <point x="246" y="0" type="line"/>
    </contour>
  </outline>
</glyph>
<glyph name="gbreve" format="2">
  <advance width="271"/>
  <unicode hex="011F"/>
  <anchor x="145.5" y="500" name="top"/>
  <outline>
    <contour>
      <point x="15" y="312.439" type="qcurve" smooth="yes"/>
      <point x="15" y="206.793"/>
      <point x="76" y="143" type="qcurve"/>
      <point x="26" y="118.113"/>
      <point x="26" y="81.6376" type="qcurve" smooth="yes"/>
      <point x="26" y="41.7376"/>
      <point x="81" y="22" type="qcurve"/>
      <point x="21" y="-4.92308"/>
      <point x="21" y="-98.3075" type="qcurve" smooth="yes"/>
      <point x="21" y="-172.914"/>
      <point x="98.3279" y="-259"/>
      <point x="149.69" y="-259" type="qcurve" smooth="yes"/>
      <point x="207.803" y="-259"/>
      <point x="286" y="-152.644"/>
      <point x="286" y="-87.2565" type="qcurve" smooth="yes"/>
      <point x="286" y="-23.7559"/>
      <point x="211.283" y="47"/>
      <point x="132.71" y="47" type="qcurve" smooth="yes"/>
      <point x="90.7396" y="47"/>
      <point x="61" y="69"/>
      <point x="61" y="83.3469" type="qcurve" smooth="yes"/>
      <point x="61" y="101.151"/>
      <point x="99.6826" y="130.078"/>
      <point x="126.47" y="130.078" type="qcurve" smooth="yes"/>
      <point x="179.974" y="130.078"/>
      <point x="239" y="241.666"/>
      <point x="239" y="311.682" type="qcurve" smooth="yes"/>
      <point x="239" y="371.542"/>
      <point x="219" y="439" type="qcurve"/>
      <point x="241.132" y="477"/>
      <point x="270" y="477" type="qcurve"/>
      <point x="270" y="519" type="line"/>
      <point x="255.063" y="519"/>
      <point x="225.857" y="496.161"/>
      <point x="208" y="459.183" type="qcurve"/>
      <point x="176.257" y="509"/>
      <point x="128.452" y="509" type="qcurve" smooth="yes"/>
      <point x="76.7276" y="509"/>
      <point x="15" y="386.984"/>
    </contour>
    <contour>
      <point x="51" y="322.317" type="qcurve" smooth="yes"/>
      <point x="51" y="398.307"/>
      <point x="92.3043" y="478"/>
      <point x="128.396" y="478" type="qcurve" smooth="yes"/>
      <point x="161.696" y="478"/>
      <point x="203" y="399.303"/>
      <point x="203" y="323.313" type="qcurve" smooth="yes"/>
      <point x="203" y="247.693"/>
      <point x="160.696" y="158"/>
      <point x="125.935" y="158" type="qcurve" smooth="yes"/>
      <point x="91.3043" y="158"/>
      <point x="51" y="246.697"/>
    </contour>
    <contour>
      <point x="112.391" y="9" type="qcurve"/>
      <point x="183.225" y="9"/>
      <point x="249" y="-33.2425"/>
      <point x="249" y="-97.4662" type="qcurve" smooth="yes"/>
      <point x="249" y="-157.574"/>
      <point x="190.059" y="-230"/>
      <point x="149.825" y="-230" type="qcurve" smooth="yes"/>
      <point x="108.497" y="-230"/>
      <point x="58" y="-155.16"/>
      <point x="58" y="-106.615" type="qcurve" smooth="yes"/>
      <point x="58" y="-33.2425"/>
    </contour>
    <contour>
      <point x="124.645" y="550" type="qcurve" smooth="yes"/>
      <point x="241.5" y="550"/>
      <point x="241.5" y="704" type="qcurve"/>
      <point x="205.5" y="704" type="line"/>
      <point x="205.5" y="579"/>
      <point x="124.645" y="579" type="qcurve" smooth="yes"/>
      <point x="45.5" y="579"/>
      <point x="45.5" y="704" type="qcurve"/>
      <point x="9.5" y="704" type="line"/>
      <point x="9.5" y="550"/>
    </contour>
  </outline>
</glyph>
<glyph name="dotlessi" format="2">
  <advance width="96"/>
  <unicode hex="0131"/>
  <anchor x="48" y="500" name="top"/>
  <anchor x="23" y="0" name="ced"/>
  <anchor x="18" y="0" name="ogonek"/>
  <outline>
    <contour>
      <point x="30" y="0" type="line"/>
      <point x="66" y="0" type="line"/>
      <point x="66" y="500" type="line"/>
      <point x="30" y="500" type="line"/>
    </contour>
  </outline>
</glyph>
<glyph name="Kcommaaccent" format="2">
  <advance width="291"/>
  <unicode hex="0136"/>
  <outline>
    <contour>
      <point x="240" y="0" type="line"/>
      <point x="276" y="0" type="line"/>
      <point x="119" y="392" type="line"/>
      <point x="269" y="700" type="line"/>
      <point x="233" y="700" type="line"/>
      <point x="76" y="386" type="line"/>
      <point x="76" y="700" type="line"/>
      <point x="40" y="700" type="line"/>
      <point x="40" y="0" type="line"/>
      <point x="76" y="0" type="line"/>
      <point x="76" y="323.257" type="line"/>
      <point x="93" y="360" type="line"/>
    </contour>
    <contour>
      <point x="130.5" y="-121.754" type="qcurve" smooth="yes"/>
      <point x="130.5" y="-156.475"/>
      <point x="158.5" y="-156.475" type="qcurve"/>
      <point x="134.5" y="-241.475" type="line"/>
      <point x="148.5" y="-241.475" type="line"/>
      <point x="190.5" y="-162.475"/>
      <point x="190.5" y="-124.402" type="qcurve" smooth="yes"/>
      <point x="190.5" y="-90.4754"/>
      <point x="160.779" y="-90.4754" type="qcurve" smooth="yes"/>
      <point x="147.9" y="-90.4754"/>
      <point x="130.5" y="-104.249"/>
    </contour>
  </outline>
</glyph>
<glyph name="Lacute" format="2">
  <advance width="226"/>
  <unicode hex="0139"/>
  <anchor x="83" y="700" name="top"/>
  <outline>
    <contour>
      <point x="40" y="0" type="line"/>
      <point x="221" y="0" type="line"/>
      <point x="221" y="29" type="line"/>
      <point x="76" y="29" type="line"/>
      <point x="76" y="700" type="line"/>
      <point x="40" y="700" type="line"/>
    </contour>
    <contour>
      <point x="92.0434" y="750" type="line"/>
      <point x="136.705" y="890" type="line"/>
      <point x="100.492" y="890" type="line"/>
      <point x="69.8219" y="750" type="line"/>
    </contour>
  </outline>
</glyph>
<glyph name="lcommaaccent" format="2">
  <advance width="136"/>
  <unicode hex="013C"/>
  <anchor x="73" y="750" name="top"/>
  <outline>
    <contour>
      <point x="30" y="750" type="line"/>
      <point x="30" y="130.817" type="line" smooth="yes"/>
      <point x="30" y="56.9144"/>
      <point x="59.5556" y="-8"/>
      <point x="106" y="-8" type="qcurve"/>
      <point x="106" y="21" type="line"/>
      <point x="80" y="19.0029"/>
      <point x="66" y="47.9603"/>
      <point x="66" y="92.8941" type="qcurve" smooth="yes"/>
      <point x="66" y="750" type="line"/>
    </contour>
    <contour>
      <point x="43" y="-121.754" type="qcurve" smooth="yes"/>
      <point x="43" y="-156.475"/>
      <point x="71" y="-156.475" type="qcurve"/>
      <point x="47" y="-241.475" type="line"/>
      <point x="61" y="-241.475" type="line"/>
      <point x="103" y="-162.475"/>
      <point x="103" y="-124.402" type="qcurve" smooth="yes"/>
      <point x="103" y="-90.4754"/>
      <point x="73.2792" y="-90.4754" type="qcurve" smooth="yes"/>
      <point x="60.4" y="-90.4754"/>
      <point x="43" y="-104.249"/>
    </contour>
  </outline>
</glyph>
<glyph name="lcaron" format="2">
  <advance width="206"/>
  <unicode hex="013E"/>
  <anchor x="73" y="750" name="top"/>
  <outline>
    <contour>
      <point x="30" y="750" type="line"/>
      <point x="30" y="130.817" type="line" smooth="yes"/>
      <point x="30" y="56.9144"/>
      <point x="59.5556" y="-8"/>
      <point x="106" y="-8" type="qcurve"/>
      <point x="106" y="21" type="line"/>
      <point x="80" y="19.0029"/>
      <point x="66" y="47.9603"/>
      <point x="66" y="92.8941" type="qcurve" smooth="yes"/>
      <point x="66" y="750" type="line"/>
    </contour>
    <contour>
      <point x="116" y="718.722" type="qcurve" smooth="yes"/>
      <point x="116" y="684"/>
      <point x="144" y="684" type="qcurve"/>
      <point x="120" y="599" type="line"/>
      <point x="134" y="599" type="line"/>
      <point x="176" y="678"/>
      <point x="176" y="716.074" type="qcurve" smooth="yes"/>
      <point x="176" y="750"/>
      <point x="146.279" y="750" type="qcurve" smooth="yes"/>
      <point x="133.4" y="750"/>
      <point x="116" y="736.226"/>
    </contour>
  </outline>
</glyph>
<glyph name="breve" format="2">
  <advance width="292"/>
  <unicode hex="02D8"/>
  <anchor x="146" y="700" name="_top"/>
  <outline>
    <contour>
      <point x="145.145" y="750" type="qcurve" smooth="yes"/>
      <point x="262" y="750"/>
      <point x="262" y="904" type="qcurve"/>
      <point x="226" y="904" type="line"/>
      <point x="226" y="779"/>
      <point x="145.145" y="779" type="qcurve" smooth="yes"/>
      <point x="66" y="779"/>
      <point x="66" y="904" type="qcurve"/>
      <point x="30" y="904" type="line"/>
      <point x="30" y="750"/>
    </contour>
  </outline>
</glyph>
<glyph name="tilde" format="2">
  <advance width="235"/>
  <unicode hex="02DC"/>
  <outline>
    <contour>
      <point x="49" y="750" type="line"/>
      <point x="49" y="820.663"/>
      <point x="69.1043" y="820.663" type="qcurve" smooth="yes"/>
      <point x="85.3161" y="820.663"/>
      <point x="128.526" y="750"/>
      <point x="158.851" y="750" type="qcurve" smooth="yes"/>
      <point x="194.012" y="750"/>
      <point x="234.872" y="800.081"/>
      <point x="235" y="862.105" type="qcurve"/>
      <point x="186" y="862.105" type="line"/>
      <point x="186" y="789.337"/>
      <point x="164.774" y="789.337" type="qcurve" smooth="yes"/>
      <point x="148.19" y="789.337"/>
      <point x="102.092" y="860"/>
      <point x="71.9909" y="860" type="qcurve" smooth="yes"/>
      <point x="37.1567" y="860"/>
      <point x="0" y="810.341"/>
      <point x="0" y="750" type="qcurve"/>
    </contour>
  </outline>
</glyph>
<glyph name="hungarumlaut" format="2">
  <advance width="300"/>
  <unicode hex="02DD"/>
  <anchor x="121" y="700" name="_top"/>
  <outline>
    <contour>
      <point x="65.3382" y="750" type="line"/>
      <point x="110" y="890" type="line"/>
      <point x="73.7867" y="890" type="line"/>
      <point x="43.1166" y="750" type="line"/>
    </contour>
    <contour>
      <point x="195.338" y="750" type="line"/>
      <point x="240" y="890" type="line"/>
      <point x="203.787" y="890" type="line"/>
      <point x="173.117" y="750" type="line"/>
    </contour>
  </outline>
</glyph>
<glyph name="Germandbls" format="2">
  <advance width="461"/>
  <unicode hex="1E9E"/>
  <outline>
    <contour>
      <point x="40" y="0" type="line"/>
      <point x="73" y="0" type="line"/>
      <point x="73" y="515.031" type="line" smooth="yes"/>
      <point x="73" y="598.285"/>
      <point x="135.448" y="686"/>
      <point x="209.586" y="686" type="qcurve" smooth="yes"/>
      <point x="393.3" y="686" type="line"/>
      <point x="239.2" y="387.542" type="line"/>
      <point x="239.2" y="353" type="line"/>
      <point x="405" y="353"/>
      <point x="405" y="196.141" type="qcurve" smooth="yes"/>
      <point x="405" y="29"/>
      <point x="219.2" y="29" type="qcurve"/>
      <point x="219.2" y="0" type="line"/>
      <point x="441" y="0"/>
      <point x="441" y="203.781" type="qcurve" smooth="yes"/>
      <point x="441" y="340.046"/>
      <point x="275" y="382" type="qcurve"/>
      <point x="429.25" y="684.161" type="line"/>
      <point x="429.25" y="714.75" type="line"/>
      <point x="215.922" y="714.75" type="line" smooth="yes"/>
      <point x="129.367" y="714.75"/>
      <point x="40" y="621"/>
      <point x="40" y="515" type="qcurve" smooth="yes"/>
    </contour>
  </outline>
</glyph>
<glyph name="bullet" format="2">
  <advance width="119"/>
  <unicode hex="2022"/>
  <outline>
    <contour>
      <point x="30" y="304" type="qcurve" smooth="yes"/>
      <point x="30" y="263"/>
      <point x="59.5" y="263" type="qcurve" smooth="yes"/>
      <point x="89" y="263"/>
      <point x="89" y="304" type="qcurve" smooth="yes"/>
      <point x="89" y="345"/>
      <point x="59.5" y="345" type="qcurve" smooth="yes"/>
      <point x="30" y="345"/>
    </contour>
  </outline>
</glyph>
<glyph name="guilsinglleft" format="2">
  <advance width="162"/>
  <unicode hex="2039"/>
  <outline>
    <contour>
      <point x="147" y="482" type="line"/>
      <point x="51" y="265" type="line"/>
      <point x="147" y="58" type="line"/>
      <point x="111" y="58" type="line"/>
      <point x="15" y="265" type="line"/>
      <point x="111" y="482" type="line"/>
    </contour>
  </outline>
</glyph>
<glyph name="Euro" format="2">
  <advance width="359"/>
  <unicode hex="20AC"/>
  <anchor x="189.5" y="700" name="top"/>
  <outline>
    <contour>
      <point x="287.539" y="186.33" type="line"/>
      <point x="262.238" y="14"/>
      <point x="186.379" y="14" type="qcurve" smooth="yes"/>
      <point x="126.872" y="14"/>
      <point x="76" y="210.144"/>
      <point x="76" y="353" type="qcurve" smooth="yes"/>
      <point x="76" y="495.856"/>
      <point x="126.855" y="692"/>
      <point x="194.814" y="692" type="qcurve" smooth="yes"/>
      <point x="251.813" y="692"/>
      <point x="290.903" y="550.478"/>
      <point x="290.903" y="500" type="qcurve"/>
      <point x="327.315" y="500" type="line"/>
      <point x="326.768" y="565.895"/>
      <point x="262.28" y="721"/>
      <point x="193.869" y="721" type="qcurve" smooth="yes"/>
      <point x="115.26" y="721"/>
      <point x="40" y="514"/>
      <point x="40" y="353" type="qcurve" smooth="yes"/>
      <point x="40" y="192"/>
      <point x="115.146" y="-15"/>
      <point x="188.264" y="-15" type="qcurve" smooth="yes"/>
      <point x="261.942" y="-15"/>
      <point x="300.237" y="91.7311" type="qcurve" smooth="yes"/>
      <point x="314.784" y="132.274"/>
      <point x="323.847" y="186.33" type="qcurve"/>
    </contour>
    <contour>
      <point x="-25" y="394" type="line"/>
      <point x="204" y="394" type="line"/>
      <point x="204" y="423" type="line"/>
      <point x="-25" y="423" type="line"/>
    </contour>
    <contour>
      <point x="-25" y="222" type="line"/>
      <point x="204" y="222" type="line"/>
      <point x="204" y="251" type="line"/>
      <point x="-25" y="251" type="line"/>
    </contour>
  </outline>
</glyph>
<glyph name="minus" format="2">
  <advance width="349"/>
  <unicode hex="2212"/>
  <outline>
    <contour>
      <point x="0" y="293" type="line"/>
      <point x="349" y="293" type="line"/>
      <point x="349" y="329" type="line"/>
      <point x="0" y="329" type="line"/>
    </contour>
  </outline>
</glyph>
<glyph name="a.alt" format="2">
  <advance width="298"/>
  <outline>
    <contour>
      <point x="283" y="500.086" type="line"/>
      <point x="283" y="0" type="line"/>
      <point x="247" y="0" type="line"/>
      <point x="247" y="44" type="line"/>
      <point x="221.218" y="-6"/>
      <point x="162.662" y="-6" type="qcurve" smooth="yes"/>
      <point x="30" y="-6"/>
      <point x="30" y="246.443" type="qcurve" smooth="yes"/>
      <point x="30" y="506"/>
      <point x="172.032" y="506" type="qcurve" smooth="yes"/>
      <point x="233.594" y="506"/>
      <point x="247" y="457.986" type="qcurve"/>
      <point x="260.31" y="500.086" type="line"/>
    </contour>
    <contour>
      <point x="167.936" y="487" type="qcurve" smooth="yes"/>
      <point x="66" y="487"/>
      <point x="66" y="251.095" type="qcurve" smooth="yes"/>
      <point x="66" y="16"/>
      <point x="168.474" y="16" type="qcurve" smooth="yes"/>
      <point x="247" y="16"/>
      <point x="247" y="150.935" type="qcurve"/>
      <point x="247" y="345.7" type="line"/>
      <point x="247" y="487"/>
    </contour>
  </outline>
</glyph>
<glyph name="caroncomb.alt" format="2">
  <anchor x="-37" y="700.002" name="_top"/>
  <outline>
    <contour>
      <point x="55.9913" y="669.661" type="qcurve" smooth="yes"/>
      <point x="55.9913" y="634.939"/>
      <point x="83.9913" y="634.939" type="qcurve"/>
      <point x="59.9913" y="549.939" type="line"/>
      <point x="73.9913" y="549.939" type="line"/>
      <point x="115.991" y="628.939"/>
      <point x="115.991" y="667.013" type="qcurve" smooth="yes"/>
      <point x="115.991" y="700.939"/>
      <point x="86.2705" y="700.939" type="qcurve" smooth="yes"/>
      <point x="73.3913" y="700.939"/>
      <point x="55.9913" y="687.165"/>
    </contour>
  </outline>
</glyph>
